<?xml version="1.0" encoding="UTF-8"?>
<svg version="1.1" xmlns="http://www.w3.org/2000/svg" width="512" height="512">
<path d="M0 0 C1.11217896 0.00966797 1.11217896 0.00966797 2.24682617 0.01953125 C34.33101942 1.03924842 66.49154501 21.54966596 92.50341797 38.39941406 C96.48988371 40.74365977 99.28059252 40.44171449 103.7578125 39.94140625 C105.13708545 39.79896483 106.51657641 39.65862387 107.89624023 39.52001953 C108.64090546 39.44479065 109.38557068 39.36956177 110.15280151 39.29205322 C127.69551578 37.57639661 145.19299177 37.14419368 162.8125 37.125 C164.03733093 37.12125366 165.26216187 37.11750732 166.52410889 37.11364746 C181.2643763 37.09275823 195.6292461 37.77936499 210.25686646 39.53457642 C223.13923308 41.04644787 232.39013912 41.25070641 243.30834961 33.12695312 C244.88023987 31.88180135 246.44085187 30.62227665 247.98974609 29.34863281 C252.0995184 26.16345411 256.61242187 23.75958791 261.1875 21.3125 C262.09282471 20.82249512 262.99814941 20.33249023 263.9309082 19.82763672 C283.49922743 9.43428939 312.01659168 -5.55905009 335 1.28125 C343.05082178 5.55062518 346.73772695 15.3438259 349.50390625 23.5390625 C358.13039352 52.86138247 357.03880774 84.62108944 355.375 114.8125 C355.0540464 120.69575174 354.74657294 126.57895507 354.47790527 132.46484375 C354.39115909 134.18042184 354.27202557 135.89431757 354.14550781 137.60742188 C353.80155782 144.24332921 355.93154934 148.64593769 359.125 154.375 C360.14850333 156.32077372 361.16513191 158.27017518 362.17578125 160.22265625 C362.70510254 161.24504395 363.23442383 162.26743164 363.77978516 163.32080078 C381.69010731 199.01535466 395.52392536 238.99979216 401.375 278.5 C401.56578125 279.78132813 401.7565625 281.06265625 401.953125 282.3828125 C405.79325516 314.75539242 394.40419482 339.61191544 375 364.625 C366.48969715 375.32907638 356.95021362 385.0184697 347.33190918 394.71731567 C346.33626169 395.72166218 345.34198719 396.72737209 344.34924316 397.73458862 C338.4520934 403.70744876 332.38210116 409.29941792 325.82006836 414.54296875 C323.29836081 416.56134196 320.86887306 418.65782586 318.44824219 420.79467773 C309.96612324 428.26382223 300.95339089 434.99180281 291.85058594 441.68017578 C289.5638653 443.36116352 287.28539482 445.05276081 285.0078125 446.74609375 C190.7200642 516.34097895 190.7200642 516.34097895 156.375 512.5 C145.51628121 509.92926523 135.38963065 504.83682597 125.578125 499.65673828 C123.1971398 498.40661551 120.80285346 497.18474064 118.40625 495.96484375 C86.40860794 479.59047759 55.81847447 459.46435658 27.375 437.5 C26.7459375 437.01821289 26.116875 436.53642578 25.46875 436.04003906 C18.5087582 430.70042035 11.71806997 425.18261831 5.05493164 419.47705078 C1.73845536 416.63724531 -1.63735924 413.89656601 -5.0625 411.1875 C-11.5265736 405.93840646 -17.28564789 400.00486868 -23.09912109 394.05883789 C-26.13969328 390.95258935 -29.21797264 387.89128275 -32.3515625 384.87890625 C-39.8743507 377.60954989 -46.37366992 369.87595003 -52.625 361.5 C-53.05554688 360.93555176 -53.48609375 360.37110352 -53.9296875 359.78955078 C-72.39188827 335.55791227 -80.70733725 310.81030947 -76.94140625 280.203125 C-70.49613942 235.09335939 -53.61586229 189.57221689 -31.9375 149.625 C-29.27399499 144.36687372 -29.00731422 140.29742225 -29.625 134.5 C-29.77385248 132.66690933 -29.91936987 130.83354636 -30.0625 129 C-30.15273438 127.91332031 -30.24296875 126.82664062 -30.3359375 125.70703125 C-31.47536343 110.37903963 -31.98547152 94.8672857 -31.625 79.5 C-31.60711426 78.65969238 -31.58922852 77.81938477 -31.57080078 76.95361328 C-30.27926087 23.62338494 -30.27926087 23.62338494 -15.0625 5.4375 C-10.07111224 1.46998665 -6.41017856 -0.05938787 0 0 Z " fill="#F4FBFE" transform="translate(93.625,-0.5)"/>
<path d="M0 0 C8.24948294 4.35171965 11.91091746 13.83877621 14.75 22.25 C23.37648727 51.57231997 22.28490149 83.33202694 20.62109375 113.5234375 C20.30014015 119.40668924 19.99266669 125.28989257 19.72399902 131.17578125 C19.63725284 132.89135934 19.51811932 134.60525507 19.39160156 136.31835938 C19.04765157 142.95426671 21.17764309 147.35687519 24.37109375 153.0859375 C25.39459708 155.03171122 26.41122566 156.98111268 27.421875 158.93359375 C27.95119629 159.95598145 28.48051758 160.97836914 29.02587891 162.03173828 C46.93620106 197.72629216 60.77001911 237.71072966 66.62109375 277.2109375 C66.811875 278.49226563 67.00265625 279.77359375 67.19921875 281.09375 C71.03934891 313.46632992 59.65028857 338.32285294 40.24609375 363.3359375 C31.7357909 374.04001388 22.19630737 383.7294072 12.57800293 393.42825317 C11.58235544 394.43259968 10.58808094 395.43830959 9.59533691 396.44552612 C3.69818715 402.41838626 -2.37180509 408.01035542 -8.93383789 413.25390625 C-11.45554544 415.27227946 -13.88503319 417.36876336 -16.30566406 419.50561523 C-24.78778301 426.97475973 -33.80051536 433.70274031 -42.90332031 440.39111328 C-45.19004095 442.07210102 -47.46851143 443.76369831 -49.74609375 445.45703125 C-144.03384205 515.05191645 -144.03384205 515.05191645 -178.37890625 511.2109375 C-189.23762504 508.64020273 -199.3642756 503.54776347 -209.17578125 498.36767578 C-211.55676645 497.11755301 -213.95105279 495.89567814 -216.34765625 494.67578125 C-248.34529831 478.30141509 -278.93543178 458.17529408 -307.37890625 436.2109375 C-308.00796875 435.72915039 -308.63703125 435.24736328 -309.28515625 434.75097656 C-316.24514805 429.41135785 -323.03583628 423.89355581 -329.69897461 418.18798828 C-333.01545089 415.34818281 -336.39126549 412.60750351 -339.81640625 409.8984375 C-346.28047985 404.64934396 -352.03955414 398.71580618 -357.85302734 392.76977539 C-360.89359953 389.66352685 -363.97187889 386.60222025 -367.10546875 383.58984375 C-374.62350974 376.32507468 -381.15581981 368.6030194 -387.37890625 360.2109375 C-387.83072266 359.6039502 -388.28253906 358.99696289 -388.74804688 358.37158203 C-400.16884591 342.94370007 -400.16884591 342.94370007 -402.37890625 337.2109375 C-402.04890625 336.5509375 -401.71890625 335.8909375 -401.37890625 335.2109375 C-400.14140625 336.726875 -400.14140625 336.726875 -398.87890625 338.2734375 C-395.96108266 341.68557473 -392.78806509 344.56754792 -389.37109375 347.46875 C-387.5038489 349.10167393 -385.78628229 350.80022889 -384.06640625 352.5859375 C-380.4129616 356.29711152 -376.42744579 359.51797145 -372.37109375 362.77734375 C-369.85214949 364.82604123 -367.3882189 366.92283375 -364.93701172 369.05151367 C-356.15274468 376.64518356 -346.79560703 383.42904207 -337.37890625 390.2109375 C-336.6725 390.72269531 -335.96609375 391.23445313 -335.23828125 391.76171875 C-318.80283213 403.64919054 -301.78459817 414.79613192 -284.37890625 425.2109375 C-283.62416016 425.6661377 -282.86941406 426.12133789 -282.09179688 426.59033203 C-227.95366798 463.18254685 -227.95366798 463.18254685 -167.37890625 477.2109375 C-156.85210317 474.19058894 -147.0613656 469.32947068 -137.39111328 464.25976562 C-135.41549878 463.23001073 -133.42847293 462.22623893 -131.4375 461.2265625 C-98.46104494 444.46981012 -67.54603941 422.19236399 -39.10693359 398.63476562 C-37.54804185 397.35029873 -35.97410186 396.08414813 -34.3984375 394.8203125 C-27.07393414 388.94379898 -20.15223596 382.70651196 -13.37890625 376.2109375 C-12.5806543 375.44668457 -11.78240234 374.68243164 -10.95996094 373.89501953 C0.62349524 362.73682256 11.52516696 351.51343021 20.62109375 338.2109375 C21.02634277 337.61845215 21.4315918 337.0259668 21.84912109 336.41552734 C29.75083752 324.65785322 36.03531525 311.83508335 35.93359375 297.4609375 C35.9294043 296.63456787 35.92521484 295.80819824 35.92089844 294.95678711 C35.77379723 286.69486326 34.60701473 278.71796894 33.07421875 270.61132812 C32.6219399 268.2154199 32.19872992 265.81557347 31.77734375 263.4140625 C25.83348789 230.6454699 13.43530802 199.37205394 -0.37890625 169.2109375 C-1.80523596 166.08947911 -3.23143642 162.96796532 -4.65600586 159.84570312 C-5.53115082 157.9321458 -6.41062437 156.02056001 -7.29516602 154.11132812 C-7.68631592 153.26119141 -8.07746582 152.41105469 -8.48046875 151.53515625 C-8.82416504 150.79354248 -9.16786133 150.05192871 -9.52197266 149.2878418 C-13.62942522 139.33282785 -11.06473404 127.79957529 -9.50390625 117.5234375 C-5.59353263 89.81978527 -5.03747779 62.15291743 -5.37890625 34.2109375 C-15.69998022 35.45092518 -23.24469338 42.09658244 -29.65234375 50.0859375 C-30.69640472 51.45320343 -31.73003175 52.82849024 -32.75390625 54.2109375 C-33.30844482 54.94932861 -33.8629834 55.68771973 -34.43432617 56.44848633 C-42.22981911 66.92203419 -49.30749659 77.63290767 -55.39453125 89.1875 C-58.01183676 93.17528439 -60.90969381 96.25094463 -65.46875 98.0234375 C-70.51712003 98.53574566 -73.91377451 97.9068661 -78.37890625 95.2109375 C-81.733155 92.0769172 -83.67820445 88.84142871 -83.890625 84.203125 C-83.72098743 77.77523664 -80.45750579 72.86635405 -77.25390625 67.4609375 C-76.62589111 66.37345215 -75.99787598 65.2859668 -75.35083008 64.16552734 C-66.75383468 49.45994323 -57.59450143 35.06898386 -46.37890625 22.2109375 C-45.88648438 21.58703125 -45.3940625 20.963125 -44.88671875 20.3203125 C-34.69536652 7.53793852 -17.0743144 -5.66340149 0 0 Z " fill="#D8E2F2" transform="translate(428.37890625,0.7890625)"/>
<path d="M0 0 C29.61537826 12.04023267 57.53962395 49.12252473 70.21875 77.30859375 C71.24952212 82.57813462 70.1600329 86.84595763 67.21875 91.30859375 C63.03764069 95.08178996 60.19590262 96.81787578 54.4375 96.703125 C50.098119 95.93150972 47.20372928 93.43750284 44.21875 90.30859375 C42.60085096 87.96284811 41.21280379 85.56050096 39.828125 83.0703125 C29.50528353 65.35611609 12.8196938 46.03617629 -4.78125 35.30859375 C-5.833125 34.64859375 -6.885 33.98859375 -7.96875 33.30859375 C-11.72604117 31.972668 -13.97015093 32.17937921 -17.78125 33.30859375 C-40.61340863 53.45461607 -37.69505821 112.32668057 -39.78125 139.30859375 C-40.11125 139.30859375 -40.44125 139.30859375 -40.78125 139.30859375 C-43.06709725 118.40307814 -44.27471153 97.34538576 -43.78125 76.30859375 C-43.76336426 75.46828613 -43.74547852 74.62797852 -43.72705078 73.76220703 C-42.43551087 20.43197869 -42.43551087 20.43197869 -27.21875 2.24609375 C-26.414375 1.60671875 -25.61 0.96734375 -24.78125 0.30859375 C-23.6984375 -0.58859375 -23.6984375 -0.58859375 -22.59375 -1.50390625 C-15.13677945 -4.65240493 -7.37960529 -2.49147889 0 0 Z " fill="#7F8C97" transform="translate(105.78125,2.69140625)"/>
<path d="M0 0 C8.24948294 4.35171965 11.91091746 13.83877621 14.75 22.25 C23.12515047 50.71800026 22.35176103 81.65222823 20.8215332 110.99291992 C20.68253213 113.66887509 20.55085072 116.34512332 20.41992188 119.02148438 C20.33246138 120.75002182 20.24458574 122.47853832 20.15625 124.20703125 C20.09837059 125.38693886 20.09837059 125.38693886 20.0393219 126.59068298 C19.7781193 131.50423403 19.28295912 136.33474568 18.62109375 141.2109375 C18.29109375 141.2109375 17.96109375 141.2109375 17.62109375 141.2109375 C17.57764328 140.65622269 17.53419281 140.10150787 17.48942566 139.52998352 C17.02658666 133.63822913 16.55423907 127.74728671 16.0769043 121.85668945 C15.90107202 119.67230542 15.7274872 117.48773905 15.55639648 115.30297852 C13.51423075 88.23436985 13.51423075 88.23436985 8.24609375 61.6484375 C8.03476807 60.83109131 7.82344238 60.01374512 7.60571289 59.17163086 C5.28921786 50.51282079 2.75839599 41.95612492 -3.37890625 35.2109375 C-6.74272727 34.04653792 -8.97707263 33.62098748 -12.328125 35.03125 C-20.54425306 39.90604504 -27.11008667 46.59058666 -32.75390625 54.2109375 C-33.30844482 54.94932861 -33.8629834 55.68771973 -34.43432617 56.44848633 C-42.22981911 66.92203419 -49.30749659 77.63290767 -55.39453125 89.1875 C-58.01183676 93.17528439 -60.90969381 96.25094463 -65.46875 98.0234375 C-70.51712003 98.53574566 -73.91377451 97.9068661 -78.37890625 95.2109375 C-81.733155 92.0769172 -83.67820445 88.84142871 -83.890625 84.203125 C-83.72098743 77.77523664 -80.45750579 72.86635405 -77.25390625 67.4609375 C-76.62589111 66.37345215 -75.99787598 65.2859668 -75.35083008 64.16552734 C-66.75383468 49.45994323 -57.59450143 35.06898386 -46.37890625 22.2109375 C-45.88648438 21.58703125 -45.3940625 20.963125 -44.88671875 20.3203125 C-34.69536652 7.53793852 -17.0743144 -5.66340149 0 0 Z " fill="#7F8C96" transform="translate(428.37890625,0.7890625)"/>
<path d="M0 0 C4.78573306 1.56623991 6.46489009 4.4048429 8.89453125 8.7019043 C9.34183594 9.60851807 9.78914063 10.51513184 10.25 11.44921875 C10.76208008 12.46935059 11.27416016 13.48948242 11.80175781 14.54052734 C12.6114502 16.16015381 12.6114502 16.16015381 13.4375 17.8125 C26.260147 42.93776038 42.03104936 68.77613803 70.1953125 78.03125 C77.11879021 79.58503378 84.38015157 79.70986186 91.4375 80.125 C91.4375 73.525 91.4375 66.925 91.4375 60.125 C89.4575 59.795 87.4775 59.465 85.4375 59.125 C77.53187467 55.02358536 72.25505436 49.57766309 69.4375 41.125 C68.40850857 30.80568599 68.40850857 30.80568599 71.3125 26.0625 C79.79371083 20.80414929 88.69776203 20.68242871 98.4375 20.8125 C100.24734375 20.80766602 100.24734375 20.80766602 102.09375 20.80273438 C120.76789783 20.9143733 120.76789783 20.9143733 127.4375 26.125 C130.43093063 30.61514595 129.89906775 34.8602429 129.4375 40.125 C128.02607562 46.58667724 124.80956553 51.85651955 119.2890625 55.5703125 C115.17467942 57.96239569 112.20727561 59.17104488 107.4375 60.125 C107.4375 72.005 107.4375 83.885 107.4375 96.125 C103.704375 96.145625 99.97125 96.16625 96.125 96.1875 C94.97217529 96.196604 93.81935059 96.20570801 92.6315918 96.21508789 C67.91865077 96.28026026 47.87476771 89.26858573 29.96484375 71.78125 C18.06149389 59.73602085 9.6856543 44.77143043 1.4375 30.125 C0.96554199 29.29629395 0.49358398 28.46758789 0.00732422 27.61376953 C-1.28386062 25.33523542 -2.553097 23.04622465 -3.8125 20.75 C-4.18334717 20.09136963 -4.55419434 19.43273926 -4.9362793 18.75415039 C-7.3818863 14.17825233 -8.36530265 10.33429655 -8.5625 5.125 C-5.98636568 1.18029432 -4.74154148 0.16636988 0 0 Z " fill="#D8E2F3" transform="translate(156.5625,328.875)"/>
<path d="M0 0 C2.78111053 2.00857983 3.82066679 3.40794299 4.81640625 6.6953125 C5.05121714 10.92190861 3.65765654 13.64407128 1.6875 17.25 C1.14706055 18.28012207 1.14706055 18.28012207 0.59570312 19.33105469 C-0.58474473 21.56425289 -1.7906646 23.78232942 -3 26 C-3.40782715 26.76054687 -3.8156543 27.52109375 -4.23583984 28.3046875 C-16.17698317 50.56608925 -29.88726845 72.86095492 -51.98046875 86.1953125 C-56.63323486 89.13282046 -58.67645568 92.5486084 -61.34375 97.30859375 C-67.18507512 106.80074707 -75.60797652 114.99063572 -86.31982422 118.40014648 C-91.52315341 119.56471014 -96.75613327 119.38826195 -102.0625 119.3125 C-103.19494141 119.31572266 -104.32738281 119.31894531 -105.49414062 119.32226562 C-117.96263644 119.24238592 -127.26388637 116.90098617 -136.3125 108.0625 C-139.42065842 104.90554788 -141.85509383 101.88026715 -144 98 C-143.236875 98.268125 -142.47375 98.53625 -141.6875 98.8125 C-140.470625 99.204375 -139.25375 99.59625 -138 100 C-137.23937256 100.25048096 -136.47874512 100.50096191 -135.69506836 100.7590332 C-128.33304861 102.99640834 -121.5399774 103.45530826 -113.875 103.375 C-112.75996094 103.38660156 -111.64492187 103.39820313 -110.49609375 103.41015625 C-102.38134561 103.38148223 -94.26415414 102.71944508 -88 97 C-90.31 96.67 -92.62 96.34 -95 96 C-95 91.05 -95 86.1 -95 81 C-92.71835937 80.65388672 -92.71835937 80.65388672 -90.390625 80.30078125 C-67.1994753 76.63579916 -50.84464185 69.13351501 -36.625 50 C-29.93686072 40.78041645 -24.1355969 31.22174608 -18.94921875 21.08203125 C-18.4193335 20.04755859 -17.88944824 19.01308594 -17.34350586 17.94726562 C-16.29953089 15.89354437 -15.26731642 13.83379253 -14.24829102 11.76757812 C-7.52382931 -1.5433496 -7.52382931 -1.5433496 0 0 Z " fill="#D8E2F3" transform="translate(359,329)"/>
<path d="M0 0 C1.80984375 -0.00483398 1.80984375 -0.00483398 3.65625 -0.00976562 C22.33039783 0.1018733 22.33039783 0.1018733 29 5.3125 C31.99343063 9.80264595 31.46156775 14.0477429 31 19.3125 C29.59623117 25.73912918 26.39942285 31.00574878 20.921875 34.72265625 C11.58819635 40.16730213 2.1451756 41.79231053 -8.55859375 39.84765625 C-16.87576113 37.41160549 -22.76165969 32.58313911 -27.08984375 25.14453125 C-29.75175107 19.78644313 -29.66454871 14.15894642 -29 8.3125 C-26.06903399 3.52525552 -22.14101984 2.42206358 -16.99169922 0.93432617 C-11.3615239 -0.23590857 -5.72713693 -0.0764842 0 0 Z " fill="#616D76" transform="translate(255,349.6875)"/>
<path d="M0 0 C2.43188477 1.30102539 2.43188477 1.30102539 4.94140625 3.09765625 C6.31135742 4.05188477 6.31135742 4.05188477 7.70898438 5.02539062 C9.61576302 6.38662959 11.52201085 7.74861239 13.42773438 9.11132812 C14.33974609 9.74619141 15.25175781 10.38105469 16.19140625 11.03515625 C17.01842041 11.6269165 17.84543457 12.21867676 18.69750977 12.82836914 C20.88199272 14.21899652 20.88199272 14.21899652 23.05200195 13.70019531 C23.69484131 13.46913086 24.33768066 13.23806641 25 13 C38.05494208 12.2177294 47.88644747 12.41834016 58.25 21.1875 C67.07245508 29.63600486 72.2071664 38.53099984 72.49609375 50.80078125 C72 53 72 53 70.1953125 54.76953125 C67.0043058 56.55808483 64.58902823 56.39153035 61 56 C57.7345547 53.642073 56.98834546 50.53189675 55.75 46.8125 C52.93999111 39.26585937 49.62894909 34.1910636 42.6875 30 C36.91559616 28.43473794 31.52363099 28.15878967 25.8125 30.0625 C22.11816643 31.29394452 19.7997316 30.7998112 16 30 C13.03393555 28.46533203 13.03393555 28.46533203 10.13671875 26.5078125 C8.55987305 25.45013672 8.55987305 25.45013672 6.95117188 24.37109375 C5.87416016 23.62988281 4.79714844 22.88867188 3.6875 22.125 C2.59115234 21.39152344 1.49480469 20.65804687 0.36523438 19.90234375 C-7.71303196 14.43045205 -7.71303196 14.43045205 -10 11 C-10.4375 7.5625 -10.4375 7.5625 -10 4 C-6.83536645 0.47369404 -4.65959023 -0.51542802 0 0 Z " fill="#808C97" transform="translate(131,215)"/>
<path d="M0 0 C4.86081461 1.37570225 4.86081461 1.37570225 6.3125 3.9375 C6.8125 7.3125 6.8125 7.3125 6.3125 10.9375 C2.03075122 16.1617721 -3.77046544 19.52460419 -9.375 23.1875 C-10.33728516 23.82429688 -11.29957031 24.46109375 -12.29101562 25.1171875 C-21.41500515 31.13581919 -21.41500515 31.13581919 -26.1875 30.5625 C-26.9815625 30.47226563 -27.775625 30.38203125 -28.59375 30.2890625 C-30.6875 29.9375 -30.6875 29.9375 -32.6875 28.9375 C-39.33610437 28.15399443 -44.50647231 28.44074435 -49.98046875 32.4765625 C-55.95535414 37.59007997 -57.90576959 42.59230876 -60.37890625 50.01171875 C-61.77426448 53.13148984 -62.73160259 54.29785633 -65.6875 55.9375 C-69.0139419 56.35330524 -70.91643475 56.38030377 -73.84375 54.69921875 C-75.6875 52.9375 -75.6875 52.9375 -76.21875 50.80859375 C-76.06819899 39.08443415 -71.16395174 30.26205202 -62.85546875 22.1484375 C-55.20512128 15.38146349 -47.77138909 12.56666456 -37.5625 12.75 C-36.87285156 12.75064453 -36.18320312 12.75128906 -35.47265625 12.75195312 C-32.53506424 12.77722877 -29.97314703 12.8465521 -27.16015625 13.7421875 C-23.06770981 14.06544551 -20.46779073 11.57592052 -17.25 9.25 C-16.60740234 8.80205078 -15.96480469 8.35410156 -15.30273438 7.89257812 C-12.33178721 5.82045558 -9.38421671 3.71898987 -6.4453125 1.6015625 C-3.6875 -0.0625 -3.6875 -0.0625 0 0 Z " fill="#808C97" transform="translate(384.6875,215.0625)"/>
<path d="M0 0 C4.96774629 -0.62096829 8.02404472 0.5325571 12.046875 3.265625 C26.42379964 16.03233408 27.96887662 41.72928696 29.1796875 59.66113281 C30.20636374 77.08407305 30.10899065 94.36136047 29.20043945 111.78198242 C29.06143838 114.45793759 28.92975697 117.13418582 28.79882812 119.81054688 C28.71136763 121.53908432 28.62349199 123.26760082 28.53515625 124.99609375 C28.47727684 126.17600136 28.47727684 126.17600136 28.41822815 127.37974548 C28.15702555 132.29329653 27.66186537 137.12380818 27 142 C26.67 142 26.34 142 26 142 C25.95654953 141.44528519 25.91309906 140.89057037 25.86833191 140.31904602 C25.40549291 134.42729163 24.93314532 128.53634921 24.45581055 122.64575195 C24.27997827 120.46136792 24.10639345 118.27680155 23.93530273 116.09204102 C21.89417647 89.02324801 21.89417647 89.02324801 16.625 62.4375 C16.41222412 61.61797852 16.19944824 60.79845703 15.98022461 59.95410156 C13.27673239 48.94432574 13.27673239 48.94432574 7.56933594 39.39526367 C2.08434994 33.14699752 1.72746065 26.8996975 1.125 18.8125 C1.00898438 17.55501953 0.89296875 16.29753906 0.7734375 15.00195312 C0.32528147 9.98954134 -0.06659348 5.03481724 0 0 Z " fill="#5F6C75" transform="translate(420,0)"/>
<path d="M0 0 C1.84754883 0.00773437 1.84754883 0.00773437 3.73242188 0.015625 C9.51387728 0.065492 15.12045625 0.20435048 20.8125 1.25 C18.0698566 9.28014343 15.29226866 15.73238204 7.8125 20.25 C2.589906 22.54547642 -2.27401751 22.55880297 -7.875 22.5 C-9.20096191 22.49419922 -9.20096191 22.49419922 -10.55371094 22.48828125 C-16.91683179 22.404218 -23.00440599 21.83831773 -29.1875 20.25 C-29.95837794 9.50910064 -29.95837794 9.50910064 -27.3125 5.1875 C-18.75595639 -0.11755704 -9.82118165 -0.16602103 0 0 Z " fill="#7F8C97" transform="translate(255.1875,349.75)"/>
<path d="M0 0 C5.28 0 10.56 0 16 0 C16 11.88 16 23.76 16 36 C10.72 36 5.44 36 0 36 C0 24.12 0 12.24 0 0 Z " fill="#D8E2F2" transform="translate(248,389)"/>
<path d="M0 0 C2.55431565 2.18941341 3.82915583 3.96168362 4.38085938 7.31469727 C4.53890622 10.0751291 4.54541113 12.79809749 4.5 15.5625 C4.51546875 16.50802734 4.5309375 17.45355469 4.546875 18.42773438 C4.50821877 25.26505432 4.50821877 25.26505432 2.1875 28.62109375 C-1.04632532 30.65955864 -3.26242741 30.53393894 -7 30 C-9.1875 28.65625 -9.1875 28.65625 -11 26 C-11.60150271 22.32620653 -11.55759383 18.71480191 -11.5 15 C-11.51546875 14.00226563 -11.5309375 13.00453125 -11.546875 11.9765625 C-11.50809194 4.74352248 -11.50809194 4.74352248 -9.1875 1.34765625 C-5.91763777 -0.66681245 -3.75338767 -0.60322302 0 0 Z " fill="#D8E2F3" transform="translate(305,207)"/>
<path d="M0 0 C3.5 0.5625 3.5 0.5625 5.6875 1.91015625 C8.59944291 6.17138304 8.07806383 10.52738313 8 15.5625 C8.01546875 16.56023437 8.0309375 17.55796875 8.046875 18.5859375 C8.00809786 25.81787382 8.00809786 25.81787382 5.6875 29.21875 C2.44757145 31.20899182 0.22011564 31.09394509 -3.5 30.5625 C-5.6875 29.18359375 -5.6875 29.18359375 -7.5 26.5625 C-8.09925261 23.07531075 -8.05775242 19.65511637 -8 16.125 C-8.01546875 15.18333984 -8.0309375 14.24167969 -8.046875 13.27148438 C-8.02233299 8.92448066 -7.90020802 6.25251382 -5.6875 2.4375 C-3.5 0.5625 -3.5 0.5625 0 0 Z " fill="#D8E2F3" transform="translate(210.5,206.4375)"/>
<path d="M0 0 C5.28 0 10.56 0 16 0 C16 4.95 16 9.9 16 15 C10.72 15 5.44 15 0 15 C0 10.05 0 5.1 0 0 Z " fill="#B9C9EA" transform="translate(248,410)"/>
</svg>
